<svg width="194" height="80" viewBox="0 0 194 80" fill="none" xmlns="http://www.w3.org/2000/svg">
<path d="M40 0L49.4427 30.5573H80L55.2786 49.4427L64.7214 80L40 61.1146L15.2786 80L24.7214 49.4427L0 30.5573H30.5573L40 0Z" fill="#503E3E"/>
<g filter="url(#filter0_d_369_276)">
<path d="M37.52 43.32H30.48V55H24.44V27.08H30.48V38.4H37.52V27.08H43.56V55H37.52V43.32ZM63.3844 55L61.6244 48.28H53.9844L52.2644 55H46.1844L53.7444 27.08H62.2244L69.7844 55H63.3844ZM57.9844 32.88H57.6644L54.9444 43.44H60.7044L57.9844 32.88ZM84.9688 32V55H78.9688V32H70.9288V27.08H93.0088V32H84.9688ZM103.873 25.4H111.473L105.953 38.44H101.593L103.873 25.4ZM121.138 55V27.08H138.978V32H127.138V38.4H138.578V43.32H127.138V50.08H138.978V55H121.138ZM150.882 55H144.962V27.08H155.762C157.122 27.08 158.335 27.2933 159.402 27.72C160.469 28.12 161.362 28.7067 162.082 29.48C162.829 30.2533 163.389 31.1867 163.762 32.28C164.135 33.3733 164.322 34.6 164.322 35.96C164.322 37.9333 163.895 39.6267 163.042 41.04C162.189 42.4533 160.975 43.3867 159.402 43.84L164.882 55H158.322L153.642 44.64H150.882V55ZM154.322 40C155.735 40 156.709 39.7333 157.242 39.2C157.802 38.6667 158.082 37.7867 158.082 36.56V35.36C158.082 34.1333 157.802 33.2533 157.242 32.72C156.709 32.1867 155.735 31.92 154.322 31.92H150.882V40H154.322ZM183.306 55L181.546 48.28H173.906L172.186 55H166.106L173.666 27.08H182.146L189.706 55H183.306ZM177.906 32.88H177.586L174.866 43.44H180.626L177.906 32.88Z" fill="white"/>
</g>
<defs>
<filter id="filter0_d_369_276" x="20.44" y="25.3999" width="173.266" height="37.6001" filterUnits="userSpaceOnUse" color-interpolation-filters="sRGB">
<feFlood flood-opacity="0" result="BackgroundImageFix"/>
<feColorMatrix in="SourceAlpha" type="matrix" values="0 0 0 0 0 0 0 0 0 0 0 0 0 0 0 0 0 0 127 0" result="hardAlpha"/>
<feOffset dy="4"/>
<feGaussianBlur stdDeviation="2"/>
<feComposite in2="hardAlpha" operator="out"/>
<feColorMatrix type="matrix" values="0 0 0 0 0 0 0 0 0 0 0 0 0 0 0 0 0 0 0.25 0"/>
<feBlend mode="normal" in2="BackgroundImageFix" result="effect1_dropShadow_369_276"/>
<feBlend mode="normal" in="SourceGraphic" in2="effect1_dropShadow_369_276" result="shape"/>
</filter>
</defs>
</svg>
